<?xml version="1.0"?>
<svg xmlns="http://www.w3.org/2000/svg" xmlns:xlink="http://www.w3.org/1999/xlink" xmlns:svgjs="http://svgjs.com/svgjs" version="1.1" width="512" height="512" x="0" y="0" viewBox="0 0 512 512" style="enable-background:new 0 0 512 512" xml:space="preserve"><g><g xmlns="http://www.w3.org/2000/svg"><g><path d="m223.251 119.07c-1.637-3.93-5.695-6.456-9.949-6.148-4.198.304-7.846 3.318-8.941 7.381-1.07 3.97.483 8.337 3.838 10.721 3.463 2.46 8.18 2.46 11.643 0 3.756-2.668 5.148-7.713 3.409-11.954z" fill="#5dba46" data-original="#000000" style=""/><path d="m380.051 217.919c-3.888-26.945-14.168-54.59-30.603-82.27-13.953-23.5-32.366-47.104-54.729-70.156-36.942-38.081-71.871-61.618-75.015-63.708-.004-.003-.009-.006-.014-.01-3.408-2.363-7.933-2.368-11.34-.003-.01.007-.018.013-.025.018-3.379 2.246-41.678 28.066-80.508 69.47-23.511 25.068-42.279 50.65-55.783 76.035-17.14 32.218-25.83 64.242-25.83 95.181s8.691 62.963 25.83 95.181c13.504 25.385 32.272 50.967 55.783 76.035 32.482 34.634 64.593 58.365 76.202 66.513v21.454c0 5.326 4.019 9.977 9.334 10.321 5.824.377 10.665-4.235 10.665-9.978v-21.796c12.094-8.485 46.392-33.843 80.144-70.77 15.93 10.258 34.8 16.326 55.042 16.636 58.004.887 106.593-46.942 106.593-104.952 0-51.316-37.015-94.148-85.746-103.201zm-104.181 103.2c0-45.419 35.824-82.63 80.701-84.858l-55.726 94.887c-1.815 3.092-1.837 6.919-.056 10.031s5.093 5.032 8.678 5.032h33.513v57.984c-38.306-8.222-67.11-42.348-67.11-83.076zm77.11 5.094h-26.043l31.749-54.061v33.875c0 5.523 4.477 10 10 10h26.044l-31.75 54.061v-33.875c0-5.523-4.477-10-10-10zm-128.962 129.163v-36.262l29.558-29.558c3.905-3.905 3.905-10.236-.001-14.142s-10.237-3.905-14.142 0l-15.416 15.416v-108.926l49.732-49.732c3.905-3.905 3.905-10.237 0-14.142-3.906-3.905-10.236-3.905-14.142.001l-35.589 35.59v-85.336c0-5.523-4.477-10-10-10s-10 4.477-10 10v146.473l-35.59-35.59c-3.905-3.905-10.237-3.905-14.142.001-3.905 3.905-3.905 10.237.001 14.142l49.732 49.731v47.79l-15.416-15.416c-3.905-3.905-10.237-3.905-14.142 0s-3.905 10.237 0 14.142l29.558 29.558v36.239c-38.962-29.705-137.816-114.752-137.816-212.881 0-62.921 41.281-120.229 75.911-157.224 23.392-24.99 47.015-44.359 61.905-55.68v48.304c0 5.523 4.477 10 10 10s10-4.477 10-10v-48.281c35.437 27.008 120.427 99.792 135.506 186.571-57.276.704-103.654 47.515-103.654 104.955 0 29.82 12.5 56.776 32.536 75.903-24.215 26.292-48.98 46.634-64.389 58.354zm141.078-49.398 55.727-94.887c1.815-3.092 1.837-6.92.056-10.032s-5.093-5.032-8.678-5.032h-33.514v-57.984c38.307 8.223 67.112 42.349 67.112 83.077-.002 45.42-35.826 82.63-80.703 84.858z" fill="#5dba46" data-original="#000000" style=""/></g></g></g></svg>
